<svg width="31" height="32" viewBox="0 0 31 32" fill="none" xmlns="http://www.w3.org/2000/svg">
<path fill-rule="evenodd" clip-rule="evenodd" d="M23.3855 7.1075L26.2395 9.9605C26.6295 10.3515 26.6295 10.9845 26.2395 11.3745L21.0143 16.6006L20.7072 16.2933C20.3162 15.9023 19.6842 15.9023 19.2932 16.2933C18.9022 16.6833 18.9022 17.3162 19.2932 17.7073L19.5999 18.0141L14.3755 23.2385C14.1805 23.4345 13.9245 23.5315 13.6685 23.5315C13.4125 23.5315 13.1565 23.4345 12.9615 23.2385L10.1075 20.3855C9.71751 19.9945 9.71751 19.3615 10.1075 18.9715C10.5345 18.5445 10.5345 17.8505 10.1075 17.4235C9.68251 16.9975 8.98851 16.9975 8.56051 17.4235C8.16951 17.8145 7.53751 17.8145 7.14651 17.4235L4.29251 14.5705C4.10551 14.3825 3.99951 14.1285 3.99951 13.8635C3.99951 13.5985 4.10551 13.3435 4.29251 13.1565L9.51709 7.93192L9.94116 8.35625C10.1372 8.55125 10.3932 8.64925 10.6482 8.64925C10.9042 8.64925 11.1602 8.55125 11.3552 8.35625C11.7462 7.96625 11.7462 7.33325 11.3552 6.94225L10.9311 6.51792L16.1565 1.2925C16.5475 0.9025 17.1805 0.9025 17.5705 1.2925L20.4245 4.1465C20.6115 4.3335 20.7175 4.5885 20.7175 4.8535C20.7175 5.1195 20.6115 5.3735 20.4245 5.5605C20.2175 5.7675 20.1035 6.0415 20.1035 6.3335C20.1035 6.6255 20.2175 6.9005 20.4245 7.1065C20.8505 7.5335 21.5445 7.5355 21.9715 7.1075C22.3625 6.7165 22.9955 6.7165 23.3855 7.1075ZM13.7348 10.7343C14.1258 10.3433 14.7578 10.3433 15.1488 10.7343L16.7968 12.3833C17.1878 12.7743 17.1878 13.4073 16.7968 13.7973C16.6018 13.9923 16.3458 14.0903 16.0898 14.0903C15.8348 14.0903 15.5788 13.9923 15.3828 13.7973L13.7348 12.1483C13.3438 11.7573 13.3438 11.1243 13.7348 10.7343Z" fill="#355F55"/>
<mask id="mask0_0_1611" style="mask-type:alpha" maskUnits="userSpaceOnUse" x="3" y="1" width="24" height="23">
<path fill-rule="evenodd" clip-rule="evenodd" d="M23.3855 7.1075L26.2395 9.9605C26.6295 10.3515 26.6295 10.9845 26.2395 11.3745L21.0143 16.6006L20.7072 16.2933C20.3162 15.9023 19.6842 15.9023 19.2932 16.2933C18.9022 16.6833 18.9022 17.3162 19.2932 17.7073L19.5999 18.0141L14.3755 23.2385C14.1805 23.4345 13.9245 23.5315 13.6685 23.5315C13.4125 23.5315 13.1565 23.4345 12.9615 23.2385L10.1075 20.3855C9.71751 19.9945 9.71751 19.3615 10.1075 18.9715C10.5345 18.5445 10.5345 17.8505 10.1075 17.4235C9.68251 16.9975 8.98851 16.9975 8.56051 17.4235C8.16951 17.8145 7.53751 17.8145 7.14651 17.4235L4.29251 14.5705C4.10551 14.3825 3.99951 14.1285 3.99951 13.8635C3.99951 13.5985 4.10551 13.3435 4.29251 13.1565L9.51709 7.93192L9.94116 8.35625C10.1372 8.55125 10.3932 8.64925 10.6482 8.64925C10.9042 8.64925 11.1602 8.55125 11.3552 8.35625C11.7462 7.96625 11.7462 7.33325 11.3552 6.94225L10.9311 6.51792L16.1565 1.2925C16.5475 0.9025 17.1805 0.9025 17.5705 1.2925L20.4245 4.1465C20.6115 4.3335 20.7175 4.5885 20.7175 4.8535C20.7175 5.1195 20.6115 5.3735 20.4245 5.5605C20.2175 5.7675 20.1035 6.0415 20.1035 6.3335C20.1035 6.6255 20.2175 6.9005 20.4245 7.1065C20.8505 7.5335 21.5445 7.5355 21.9715 7.1075C22.3625 6.7165 22.9955 6.7165 23.3855 7.1075ZM13.7348 10.7343C14.1258 10.3433 14.7578 10.3433 15.1488 10.7343L16.7968 12.3833C17.1878 12.7743 17.1878 13.4073 16.7968 13.7973C16.6018 13.9923 16.3458 14.0903 16.0898 14.0903C15.8348 14.0903 15.5788 13.9923 15.3828 13.7973L13.7348 12.1483C13.3438 11.7573 13.3438 11.1243 13.7348 10.7343Z" fill="white"/>
</mask>
<g mask="url(#mask0_0_1611)">
<rect x="-36.8027" y="-37.7213" width="96" height="96" fill="#FC1055"/>
</g>
</svg>
