<svg width="16" height="18" viewBox="0 0 16 18" fill="none" xmlns="http://www.w3.org/2000/svg">
<path fill-rule="evenodd" clip-rule="evenodd" d="M7.99957 15.3292C8.8575 14.5348 10.2837 13.113 11.1394 11.7337C11.936 10.449 12.8552 8.76879 12.8987 7.15766C12.9332 5.84291 12.4887 4.67189 11.6107 3.7705C10.6982 2.83346 9.38229 2.29419 7.99957 2.29419C6.61796 2.29419 5.3021 2.83346 4.38957 3.7705C3.51158 4.67189 3.06702 5.84291 3.10156 7.15766C3.14501 8.76879 4.06422 10.449 4.86087 11.7326C5.71881 13.1164 7.14386 14.5359 7.99957 15.3292ZM7.99957 0.0657959C9.98061 0.0669101 11.8792 0.850191 13.2073 2.21508C14.4953 3.53986 15.1772 5.31478 15.126 7.2156C15.0692 9.34929 14.0363 11.2902 13.0335 12.908C11.5736 15.2618 8.86273 17.5507 8.71828 17.6726L8.716 17.6746C8.50876 17.8473 8.25472 17.9342 8.00068 17.9342C7.74665 17.9342 7.49261 17.8473 7.28537 17.6746C7.16949 17.5776 4.43525 15.2757 2.96674 12.9069C1.96396 11.2902 0.931099 9.34929 0.874275 7.2156C0.823022 5.31478 1.50491 3.53986 2.79292 2.21508C4.12216 0.850191 6.01964 0.0669101 7.99957 0.0657959ZM6.56181 6.98418C6.56181 6.18976 7.20581 5.54575 8.00024 5.54575C8.79466 5.54575 9.43867 6.18976 9.43867 6.98418C9.43867 7.77861 8.79466 8.42261 8.00024 8.42261C7.20581 8.42261 6.56181 7.77861 6.56181 6.98418Z" fill="#FC1055"/>
</svg>
